<svg xmlns="http://www.w3.org/2000/svg" width="193" height="61" viewBox="0 0 193 61">
  <defs>
    <style>
      .cls-1 {
        fill: #2f2e2e;
        fill-rule: evenodd;
      }
    </style>
  </defs>
  <path id="Chelsea" class="cls-1" d="M37.931,46.632a14.95,14.95,0,0,1-1.992,1.889,9.323,9.323,0,0,1-2.283,1.307,8.808,8.808,0,0,0-.809.913q-0.311.415-.519,0.706a3.957,3.957,0,0,0-1.536.353,5.37,5.37,0,0,0-1.66,1.183q-0.955.333-1.639,0.623a6.127,6.127,0,0,0-1.1.581q-2.366.457-3.715,0.664t-1.556.207a9.72,9.72,0,0,1-4.3-.975,12.964,12.964,0,0,1-3.8-2.885q-0.582-.414-1.2-0.955a2.13,2.13,0,0,1-.519-0.54,2.162,2.162,0,0,1-.311-0.623,11.144,11.144,0,0,0-.581-2.158,9.315,9.315,0,0,0-.83-1.66q-0.789-1.245-1.162-1.888a2.382,2.382,0,0,1-.374-0.851l0.415-3.777Q8.172,37.709,7.8,36.463,8.255,34.471,8.5,33t0.415-2.469A30.983,30.983,0,0,1,10.5,23.992a37.748,37.748,0,0,1,3.071-6.5,23.971,23.971,0,0,1,4.877-5.852,11.179,11.179,0,0,1,5.333-2.573q0.5-.125,1.183-0.291a12.99,12.99,0,0,0,1.556-.5q1.079,0.333,2.179.56T30.875,9.32a3.49,3.49,0,0,1,1.681,1.328,3.679,3.679,0,0,1,.56,2.034,3.909,3.909,0,0,1-.558,1.847A8.9,8.9,0,0,1,30.8,16.666a8.142,8.142,0,0,0-.868,2.1Q29.4,20.443,28.7,23.348q-0.664,2.657-1,4.358a14.882,14.882,0,0,0-.332,2.283q0.125,1.619.249,3.2a4.563,4.563,0,0,1-.145.872,4.5,4.5,0,0,0-.145.913,0.5,0.5,0,0,0,.374.477,3.94,3.94,0,0,0,1.287.145q1.9-.5,3.561-0.913a2.723,2.723,0,0,0,1.035-1.39,37.472,37.472,0,0,0,1.492-3.715q0.828-2.241,1.346-3.756a9.732,9.732,0,0,0,.559-2.179q0.5-2.49.807-4.379t0.56-3.134a11.869,11.869,0,0,0,.124-1.556q0.041-1.141.041-3.051a19.014,19.014,0,0,0-.789-6.226,3.53,3.53,0,0,0-2.449-2.532l-1.328-.249a5.347,5.347,0,0,0-2.117-.851,16.582,16.582,0,0,0-3.237-.27,17.938,17.938,0,0,0-3.735.83,12.3,12.3,0,0,0-3.32,1.245Q21.121,3.8,20.81,4.09a3.345,3.345,0,0,1-.519.415l-1.411.706q-0.582.291-1,.457Q16.473,7,15.456,7.846a13.508,13.508,0,0,1-1.722,1.266q-0.747.789-1.287,1.453t-0.913,1.079q-1.7,1.7-3.009,3.279a20.332,20.332,0,0,0-2.137,3.071Q5.432,19.945,4.479,22.02T2.569,26.129a9.594,9.594,0,0,0-.394.975,2.461,2.461,0,0,0-.145.768l0.125,0.913a18.5,18.5,0,0,1-.623,1.868Q1.2,31.484.909,32.064,0.536,35.094.328,36.8T0.121,38.829a3.622,3.622,0,0,0,.187.955q0.187,0.622.519,1.577L0.37,43.229a5.16,5.16,0,0,0,.249,1.453q0.29,1.12.872,2.947L2.611,51.2a9.329,9.329,0,0,0,1.1,2.034A17.012,17.012,0,0,0,5.724,55.6,15.712,15.712,0,0,0,8.11,57.672,3.931,3.931,0,0,0,10,58.46l1.2,0.166,0.5,0.5a6.931,6.931,0,0,1,1.245.249q0.747,0.207,1.826.5,0.871,0.249,1.639.436a5.934,5.934,0,0,0,1.39.187,21.471,21.471,0,0,0,3.9-.353A15.1,15.1,0,0,0,25.314,59,27.152,27.152,0,0,0,28.2,57.61q1.722-.934,3.964-2.22Q34.652,53.9,36.5,52.65t3.092-2.2q0-.207-1.66-3.818h0Zm1.038,2.324a15.481,15.481,0,0,1,.581,1.494,3.871,3.871,0,0,0,.581-0.457,3.59,3.59,0,0,0,.332-0.374,0.491,0.491,0,0,1,.353.1,0.425,0.425,0,0,1,.1.311q-0.166.623-.291,1.162c-0.028.166-.056,0.346-0.083,0.54a4.707,4.707,0,0,0-.041.664,19.329,19.329,0,0,0,.27,2.926q0.269,1.723.768,4.047A1.552,1.552,0,0,0,42.6,60.432a6.93,6.93,0,0,0,2.469.353,3.084,3.084,0,0,0,1.785-.83,17.565,17.565,0,0,0,2.407-2.49q1.161-1.494,1.992-2.739a18.415,18.415,0,0,0,1.287-2.2q0.705-.954,1.432-1.826t1.39-1.7h0.249q0.29-.041,1.681,2.345a4.329,4.329,0,0,0,3.922,2.386,19.831,19.831,0,0,0,2.905-.187,5.724,5.724,0,0,0,1.909-.56q1-.623,2.013-1.245t2.013-1.287q-0.457-1.079-.892-2.034t-0.768-1.785q-1.743.374-3.03,0.581a2.968,2.968,0,0,1-1.847-.581,4.435,4.435,0,0,1-1.307-1.826q-0.042-.207-0.373-1.349T60.965,40.2a5.69,5.69,0,0,0-.747-1.826,1.258,1.258,0,0,0-1-.664,1.622,1.622,0,0,0-.54.124q-0.333.124-.747,0.291l-1.453.623a4.973,4.973,0,0,0-1.577,1.764,30.943,30.943,0,0,0-2.158,4.213q-1.37,3.03-2.428,4.939a10.537,10.537,0,0,1-1.847,2.615,10.238,10.238,0,0,1-.809.871,4.81,4.81,0,0,0-.6.664,0.407,0.407,0,0,1-.394-0.353,4,4,0,0,1-.1-1.058,26.732,26.732,0,0,1,.394-4.213q0.394-2.428,1.183-5.541,2.075-2.615,3.652-4.524t2.573-3.2q2.033-2.573,3.175-4.192a12.728,12.728,0,0,0,1.39-2.283q0.83-.912,1.432-1.6a4.944,4.944,0,0,0,.851-1.266q1-1.535,1.639-2.719T63.912,20.9q0.872-1.41,1.494-2.573t1.037-1.868q0.705-1.909,1.328-3.341t1.162-2.428a4.872,4.872,0,0,0,.207-0.747,8.183,8.183,0,0,0,.124-1q0.083-.456.208-0.913a1.644,1.644,0,0,1,.415-0.747q0.207-.872.332-1.473a5.041,5.041,0,0,0,.125-0.975,5.3,5.3,0,0,0-.5-2.573,1.685,1.685,0,0,0-1.577-.872,2.093,2.093,0,0,1-.581.083,4,4,0,0,0-.83-0.913,3.8,3.8,0,0,0-1.66.56A14.833,14.833,0,0,0,62.75,2.887Q61.214,4.215,59.7,5.771T56.69,9.112q-0.831,1.08-2.117,2.864t-2.988,4.275q-0.664,1.2-1.183,2.1a15.611,15.611,0,0,0-.809,1.556,13.591,13.591,0,0,1-.581,1.307,6.166,6.166,0,0,1-.581.934,20.056,20.056,0,0,0-1.66,3.071,22.4,22.4,0,0,0-1.245,3.777q-0.5,1.578-.934,2.843t-0.809,2.1q-0.789,2.781-1.287,4.9t-0.872,3.528a2.214,2.214,0,0,1-.456,1.038,8.291,8.291,0,0,1-1.079,1.2,10.4,10.4,0,0,1-.789.789q-0.5.457-1.411,1.245Q38.554,48,38.968,48.956ZM65.3,8.469a0.982,0.982,0,0,1,.1.477,5.54,5.54,0,0,1-.519,1.743q-0.519,1.245-1.556,3.32-1.827,3.819-3.4,6.744a34.39,34.39,0,0,1-3.071,4.835q-1.494,2.034-2.677,3.548t-2.013,2.47a9.336,9.336,0,0,1-1.411,1.577l-0.208-.208,0.56-1.411q0.477-1.2,1.224-3.4Q53.12,26.13,53.951,23.8a2.461,2.461,0,0,1,.228-1.038,3.491,3.491,0,0,1,.726-1l2.283-3.466q1.161-1.764,2.366-3.549a57.341,57.341,0,0,1,3.486-4.835q1.37-1.639,1.826-1.639A0.455,0.455,0,0,1,65.3,8.469Zm4.13,40.446a10.265,10.265,0,0,1,.581,1.536,5.339,5.339,0,0,1,.913-0.934,1.293,1.293,0,0,1,.747-0.311,0.942,0.942,0,0,1,.747.436,6.194,6.194,0,0,1,.706,1.349q0.456,1.121.872,1.93a4.885,4.885,0,0,0,.83,1.224A5.068,5.068,0,0,0,76.8,55.472a7.5,7.5,0,0,0,2.719.456,9.491,9.491,0,0,0,2.013-.187,4.759,4.759,0,0,0,1.515-.6,6.91,6.91,0,0,0,3.549-1.183,25.1,25.1,0,0,0,4.3-3.507q-0.249-.705-0.664-1.66t-0.955-2.158a4.93,4.93,0,0,1-.913.6q-0.457.229-.664,0.353a12.362,12.362,0,0,1-2.366,1,13.286,13.286,0,0,1-2.947.54,14.431,14.431,0,0,1-1.722-.457,4,4,0,0,1-1.058-.5,2.164,2.164,0,0,1-.892-1,3.579,3.579,0,0,1-.311-1.536A2.138,2.138,0,0,1,78.6,44.7a2.583,2.583,0,0,1,.5-0.726A60.98,60.98,0,0,0,84.581,38,14.609,14.609,0,0,0,87.2,33.392l0.373-1.328q0.29-1,.436-1.453T88.15,30.4q-0.166-1-.291-1.826a13.337,13.337,0,0,0-.519-1.619,3.617,3.617,0,0,0-.56-1,2.248,2.248,0,0,0-1.058-.706,5.619,5.619,0,0,0-1.681-.207,7,7,0,0,0-1.37.124,9.455,9.455,0,0,0-1.121.291,12.607,12.607,0,0,1-1.079.747,9.129,9.129,0,0,0-1,.706q-0.955,1.162-1.909,2.3t-1.826,2.1a32.715,32.715,0,0,0-1.681,3.071q-0.644,1.37-1.017,2.283-0.333.913-.6,1.7a12.2,12.2,0,0,0-.394,1.37,16.1,16.1,0,0,1-.166,1.639q-0.124.809-.249,1.639a15.556,15.556,0,0,0-1.992,1.847,10.774,10.774,0,0,0-1.287,1.764Q69.018,48,69.432,48.915ZM82.07,33.371a1.11,1.11,0,0,1,.145.6,2.928,2.928,0,0,1-.249,1.162,4.559,4.559,0,0,1-.747,1.162q-0.415.457-.851,0.934t-0.892.892q-0.249.415-.54,0.892a0.858,0.858,0,0,1-.747.477,0.639,0.639,0,0,1-.436-0.1,0.487,0.487,0,0,1-.1-0.353,7.84,7.84,0,0,1,1.536-3.507q1.535-2.386,2.449-2.386A0.484,0.484,0,0,1,82.07,33.371ZM90.89,50.45q1.037-.954,1.764-1.7t1.266-1.287a2.747,2.747,0,0,1,.519.664,2.91,2.91,0,0,1,.228.664,12.01,12.01,0,0,0,2.138,5.6,4.734,4.734,0,0,0,3.839,1.868q0.7,0,2.075.145t2.034,0.145a6.7,6.7,0,0,0,2.615-.56,10.358,10.358,0,0,0,2.614-1.639q1.122-.954,2.2-1.951t2.158-1.951l-1.618-3.818q-0.956.831-1.7,1.432a12.883,12.883,0,0,1-1.287.934q-1.826.622-2.863,0.913a7.662,7.662,0,0,1-1.245.291,5.7,5.7,0,0,1-4.794-2.054q-1.6-2.054-1.6-6.08,1.37-2.075,2.656-4.358,0.954-1.41,1.7-2.449t1.2-1.743q0.373-.788.665-1.411A11.387,11.387,0,0,1,106,31.068q0.581-.912,1-1.494a8.231,8.231,0,0,0,.664-1.079q0.5-.954.789-1.66a8.225,8.225,0,0,0,.415-1.245q0.456-.747.851-1.349t0.643-1.017q0.622-1.619,1.079-2.988t0.747-2.407q0.539-1.161.872-1.992t0.5-1.411l-0.042-.581a2.047,2.047,0,0,0,.208-0.664,7.132,7.132,0,0,1,.456-2.366,6.5,6.5,0,0,0,.457-1.992,14.185,14.185,0,0,1,.228-2.1,14.12,14.12,0,0,0,.228-2.054q0-2.573-.892-3.507A4.52,4.52,0,0,0,110.9.23a4.084,4.084,0,0,0-2.719,1.66A31.358,31.358,0,0,0,104.71,6.83q-1.452,2.49-2.614,4.856a34.874,34.874,0,0,0-1.868,4.524q-0.582,1.287-1.038,2.3a14.228,14.228,0,0,1-.872,1.681q-1.245,3.86-2.22,7.16t-1.515,6.08l0.249,0.789a10.094,10.094,0,0,0-.664,2.7,22.4,22.4,0,0,0-.374,3.2,5.511,5.511,0,0,1,.124.872q0,0.373-.021.581a0.457,0.457,0,0,1-.187.332l-2.739,2.407a10.005,10.005,0,0,0-1,1.307,7.155,7.155,0,0,1-.747,1.017Zm17.784-34.8a9.34,9.34,0,0,0-.228,1.639,28.646,28.646,0,0,1-1.577,4.814,26.616,26.616,0,0,1-2.117,4.69q-0.789,1.37-1.411,2.366a14.469,14.469,0,0,0-.955,1.743,14.569,14.569,0,0,1-1.245,2.075,1.663,1.663,0,0,1-.913.747l-0.249-.332a8.781,8.781,0,0,1,.415-2.075q0.414-1.452,1.2-3.777,0.7-1.535,1.369-2.822,0.54-1.079.81-1.764a3.178,3.178,0,0,0,.269-0.975,7.564,7.564,0,0,1,1.183-3.86,20.922,20.922,0,0,1,3.507-4.233l0.291,0.166Q108.861,14.84,108.674,15.649Zm5.043,33.265a10.263,10.263,0,0,1,.581,1.536c0.276-.415.519-0.761,0.726-1.038a6.826,6.826,0,0,0,.477-0.706q5.271-4.939,8.218-7.429t3.487-2.49a0.957,0.957,0,0,1,.767.27,1.23,1.23,0,0,1,.229.809q0,0.747-.083,2.158t-0.374,3.32a27.018,27.018,0,0,1-.6,3.341q-0.31,1.142-.6,1.141a0.83,0.83,0,0,1-.561-0.643,0.921,0.921,0,0,0-.892-0.643,3.246,3.246,0,0,0-2.158.809,2.575,2.575,0,0,0-.955,2.055,8.358,8.358,0,0,0,.291,1.287q-0.042.291-.083,0.664a6.331,6.331,0,0,0-.042.706,13,13,0,0,0,.374,3.237,10.833,10.833,0,0,0,1,2.573,2.106,2.106,0,0,0,.166,1.079,1,1,0,0,0,.664.54q0.747-.249,1.411-0.477t1.328-.477a3.875,3.875,0,0,0,.934-0.581,6.453,6.453,0,0,0,1.1-1.2l0.788-.166,2.387-2.013q1.058-.892,1.681-1.515,1.369-.871,2.511-1.619T138.5,52.11A7.3,7.3,0,0,1,139.3,51.2a5.874,5.874,0,0,1,.975-0.747q-0.291-.83-0.7-1.764l-0.913-2.055a12.1,12.1,0,0,0-1.038.83q-0.831.706-2.283,2.034-1.245,1.121-1.992,1.681a2.359,2.359,0,0,1-1.037.56A0.889,0.889,0,0,1,131.9,51.4q0.5-1.66.85-2.822a20.215,20.215,0,0,1,.685-1.951q1.494-4.814,1.743-5.727T136,35.8q0.167-1.452.312-2.407a10.542,10.542,0,0,0,.145-1.37,3.364,3.364,0,0,0-.934-2.553,3.914,3.914,0,0,0-2.8-.892,3.2,3.2,0,0,0-.934.145,7.991,7.991,0,0,0-1.017.394q-1.619,1.453-2.926,2.8T125.5,34.388q-0.914.913-1.6,1.494t-1.224.955a11.412,11.412,0,0,1-.664,1.038,2.955,2.955,0,0,1-.623.664q-0.831.831-1.494,1.411t-1.121.913a4.31,4.31,0,0,1-.5.706,4.2,4.2,0,0,1-.934.789q-0.768.54-2.137,1.411a7.08,7.08,0,0,0-1.6,1.328,3.5,3.5,0,0,0-.726,1.245l-0.249.291Q113.3,48,113.717,48.915Zm25.981,0a10.263,10.263,0,0,1,.581,1.536,5.335,5.335,0,0,1,.913-0.934,1.3,1.3,0,0,1,.747-0.311,0.943,0.943,0,0,1,.748.436,6.2,6.2,0,0,1,.7,1.349q0.456,1.121.872,1.93a4.877,4.877,0,0,0,.83,1.224,5.069,5.069,0,0,0,1.971,1.328,7.509,7.509,0,0,0,2.719.456,9.5,9.5,0,0,0,2.013-.187,4.768,4.768,0,0,0,1.515-.6,6.909,6.909,0,0,0,3.548-1.183,25.077,25.077,0,0,0,4.3-3.507q-0.249-.705-0.664-1.66t-0.955-2.158a4.943,4.943,0,0,1-.913.6q-0.458.229-.664,0.353a12.373,12.373,0,0,1-2.366,1,13.281,13.281,0,0,1-2.947.54,14.433,14.433,0,0,1-1.722-.457,4,4,0,0,1-1.058-.5,2.167,2.167,0,0,1-.893-1,3.587,3.587,0,0,1-.311-1.536,2.135,2.135,0,0,1,.208-0.934,2.579,2.579,0,0,1,.5-0.726A61,61,0,0,0,154.847,38a14.6,14.6,0,0,0,2.615-4.607l0.373-1.328q0.291-1,.436-1.453t0.146-.207q-0.166-1-.291-1.826a13.246,13.246,0,0,0-.519-1.619,3.615,3.615,0,0,0-.56-1,2.25,2.25,0,0,0-1.058-.706,5.625,5.625,0,0,0-1.681-.207,7,7,0,0,0-1.37.124,9.468,9.468,0,0,0-1.121.291,12.5,12.5,0,0,1-1.079.747,9.108,9.108,0,0,0-1,.706q-0.956,1.162-1.909,2.3t-1.826,2.1a32.764,32.764,0,0,0-1.681,3.071q-0.643,1.37-1.017,2.283-0.333.913-.6,1.7a12.26,12.26,0,0,0-.394,1.37,16.129,16.129,0,0,1-.166,1.639q-0.125.809-.249,1.639a15.52,15.52,0,0,0-1.992,1.847,10.725,10.725,0,0,0-1.287,1.764Q139.284,48,139.7,48.915Zm12.638-15.543a1.106,1.106,0,0,1,.145.6,2.928,2.928,0,0,1-.249,1.162,4.561,4.561,0,0,1-.747,1.162l-0.85.934q-0.436.478-.893,0.892-0.249.415-.539,0.892a0.858,0.858,0,0,1-.747.477,0.64,0.64,0,0,1-.436-0.1,0.484,0.484,0,0,1-.1-0.353,7.841,7.841,0,0,1,1.536-3.507q1.534-2.386,2.448-2.386A0.483,0.483,0,0,1,152.336,33.371ZM160.1,45.989a4.367,4.367,0,0,1-.477.643q0.373,0.831.685,1.556t0.56,1.307q0.166,0.291.27,0.519a1.058,1.058,0,0,1,.1.436,6.042,6.042,0,0,1-.083.872,7.072,7.072,0,0,0-1.432,1.971,4.975,4.975,0,0,0-.477,2.138,4.157,4.157,0,0,0,.954,3.009,3.965,3.965,0,0,0,2.947.975,2.666,2.666,0,0,0,.913-0.27q0.622-.27,1.494-0.726,1.369-.747,2.47-1.453a18.037,18.037,0,0,0,1.93-1.411q0.414-.414,1.411-1.37t2.448-2.449q1.08-.872,1.889-1.494l1.349-1.038q0.332-.374.581-0.6t0.456-.436a2.231,2.231,0,0,1,.436.809,3.022,3.022,0,0,1,.1.768,7.45,7.45,0,0,0,1.7,4.648,5.437,5.437,0,0,0,4.15,1.536,6.076,6.076,0,0,0,2.324-.477,10.654,10.654,0,0,0,2.407-1.432,23.876,23.876,0,0,0,1.972-1.764q0.933-.934,1.888-1.805a15.821,15.821,0,0,0-.6-1.639q-0.395-.934-0.975-2.179a3.927,3.927,0,0,1-.6.5,4.805,4.805,0,0,1-.477.291q-0.291.333-.56,0.664c-0.181.222-.367,0.456-0.561,0.706a4.636,4.636,0,0,1-.726.54,1.409,1.409,0,0,1-.726.208,2.375,2.375,0,0,1-2.013-1.058,3.751,3.751,0,0,1-.726-2.386q0-1.909.083-3.984a4.219,4.219,0,0,0-.54-2.054,1.5,1.5,0,0,0-1.328-.685,5.665,5.665,0,0,0-3.071,1.1,17.52,17.52,0,0,0-3.57,3.383c-0.249.166-.471,0.3-0.664,0.415l-0.581.332a13.318,13.318,0,0,0-1.266,1.058q-0.893.809-2.3,2.1a19.391,19.391,0,0,1-2.2,1.868,7.033,7.033,0,0,1-1.909,1l-0.291-.373q1.2-1.7,1.951-2.739a13.256,13.256,0,0,1,1.038-1.328q2.323-2.033,3.714-3.486a9.655,9.655,0,0,0,1.806-2.366,18.264,18.264,0,0,0,1.535-1.245q0.581-.539.789-0.747c0.193-.276.429-0.595,0.705-0.955a18.817,18.817,0,0,0,2.242-1.93,20.075,20.075,0,0,0,1.618-1.847q1.2-.912,2.242-1.66a2.8,2.8,0,0,0,.975-1.121,3.587,3.587,0,0,0,.311-1.536A1.624,1.624,0,0,0,185.871,28a2.37,2.37,0,0,0-1.6-.457,9.6,9.6,0,0,0-4.793,1.785,44.8,44.8,0,0,0-6.62,5.354,12.275,12.275,0,0,1-1.536,1.266q-0.707.478-1.162,0.726-0.956.831-1.577,1.453a13.624,13.624,0,0,0-.955,1.038,5.63,5.63,0,0,0-1.1.664,2.866,2.866,0,0,0-.768.913,7.238,7.238,0,0,1-.664,1.017q-0.291.353-.5,0.56l-3.777,2.49Q160.409,45.512,160.1,45.989Z"/>
</svg>
