<svg xmlns="http://www.w3.org/2000/svg" width="120" height="23" viewBox="0 0 120 23">
  <defs>
    <style>
      .cls-1 {
        fill: #262324;
        fill-rule: evenodd;
      }
    </style>
  </defs>
  <path id="Sarah_Lindig_" data-name="Sarah Lindig " class="cls-1" d="M8.567,13.356a3.8,3.8,0,0,1-.446.375,0.89,0.89,0,0,0-.246.223,1.353,1.353,0,0,0-.522.229,0.3,0.3,0,0,1-.182.111L6.96,14.27l-0.915.352a1.62,1.62,0,0,1-.34.188,1.156,1.156,0,0,0-.305.176H5.283l-0.035.023a0.814,0.814,0,0,0-.211.152,0.131,0.131,0,0,1-.07.059H4.825a1.13,1.13,0,0,0-.34.188,0.489,0.489,0,0,1-.246.129H4.075a0.114,0.114,0,0,0-.059.023L3.547,15.8a1.654,1.654,0,0,0-.5.211,0.8,0.8,0,0,1-.393.141,0.43,0.43,0,0,0-.322.152q-0.2.117-.844,0.4a0.861,0.861,0,0,0-.645.58A0.4,0.4,0,0,0,1,17.7a1.229,1.229,0,0,1,.264.158,0.3,0.3,0,0,0,.146.082l0.211-.023a1.178,1.178,0,0,1,.363.07q0.352-.094.621-0.141l0.82-.176a4.573,4.573,0,0,0,.6-0.141q0.41-.117.691-0.187a3.468,3.468,0,0,1,.931-0.416,1.329,1.329,0,0,0,.51-0.193,1,1,0,0,1,.633-0.352H6.837a1.078,1.078,0,0,0,.281-0.229A1.934,1.934,0,0,1,7.692,15.8l0.152-.047q1.078-.726,1.23-0.8a1.405,1.405,0,0,1,.287-0.1,1.125,1.125,0,0,0,.393-0.24,1.166,1.166,0,0,1,.48-0.258l0.176-.129a0.233,0.233,0,0,1,.094-0.094,1.342,1.342,0,0,0,.41-0.117l0.188-.047a1.119,1.119,0,0,0,.68-0.41,1.616,1.616,0,0,0,1.055-.48h0.07a0.877,0.877,0,0,0,.668-0.328h0.094a1.039,1.039,0,0,1,.269-0.246,0.6,0.6,0,0,0,.48-0.644,0.627,0.627,0,0,0,.164-0.27,0.166,0.166,0,0,0-.187-0.187A8.339,8.339,0,0,0,13.026,12l-1.1.516a1.48,1.48,0,0,1-.281.141,0.784,0.784,0,0,0-.24.158,0.473,0.473,0,0,1-.3.135c-0.031,0-.047-0.023-0.047-0.07a0.392,0.392,0,0,1,.205-0.205,0.485,0.485,0,0,0,.228-0.24,0.454,0.454,0,0,1,.082-0.182,0.511,0.511,0,0,0,.082-0.146,0.4,0.4,0,0,1,.111-0.152,0.223,0.223,0,0,0,.088-0.129V11.773l-0.07-.2a0.232,0.232,0,0,1,.07-0.082,0.235,0.235,0,0,0,.07-0.082l0.023-.176A0.994,0.994,0,0,0,12,11.07l-0.024-.187,0.047-.152a0.754,0.754,0,0,1-.094-0.328,1.323,1.323,0,0,0-.562-0.855A1.477,1.477,0,0,0,10.6,9.172a0.131,0.131,0,0,0-.07.047l-0.187.105a0.289,0.289,0,0,0-.129.094,0.132,0.132,0,0,0-.07-0.047,1.265,1.265,0,0,0,.07-0.363q0-.164-0.234-0.164a1.63,1.63,0,0,0-.246.047L9.642,8.82,9.548,8.8a1.781,1.781,0,0,0-.574-0.152,0.147,0.147,0,0,0-.164.129A1.315,1.315,0,0,1,8.47,8.5l-0.387-.07H7.826L7.6,8.387A0.838,0.838,0,0,0,7.24,8.211a1.268,1.268,0,0,0-.211.082,0.316,0.316,0,0,0-.211-0.129,0.361,0.361,0,0,0-.176.053A0.333,0.333,0,0,1,6.5,8.27c-0.031,0-.047-0.012-0.047-0.035L6.292,8.141a0.69,0.69,0,0,0-.2-0.07,1.4,1.4,0,0,1-.187.047H5.882A2.83,2.83,0,0,0,5.518,8a0.1,0.1,0,0,0-.07.023l-0.141.07H5.284L5.132,8.047H5.085l-0.094.07A0.384,0.384,0,0,0,4.7,7.93a0.247,0.247,0,0,0-.211.094,0.233,0.233,0,0,1-.094.094A0.23,0.23,0,0,1,4.277,7.93Q3.972,7.8,3.843,7.742a0.646,0.646,0,0,0-.27-0.059,0.323,0.323,0,0,1-.211-0.059,1.332,1.332,0,0,0-.352-0.152A0.328,0.328,0,0,1,2.73,7.18a0.7,0.7,0,0,1,.293-0.527L3.14,6.535a0.608,0.608,0,0,1,.223-0.311A0.488,0.488,0,0,0,3.556,6.02a0.811,0.811,0,0,1,.211-0.252q0.146-.123.3-0.229a1.4,1.4,0,0,0,.3-0.3q0.035-.012.281-0.07L4.781,4.93,5.015,4.977a0.251,0.251,0,0,0,.205-0.17A0.4,0.4,0,0,1,5.472,4.59,0.327,0.327,0,0,0,5.659,4.5a0.878,0.878,0,0,1,.27-0.105,0.411,0.411,0,0,0,.217-0.135,0.37,0.37,0,0,1,.264-0.123H6.55a0.293,0.293,0,0,0,.117-0.07,1.259,1.259,0,0,1,.2-0.141L6.89,3.7a0.145,0.145,0,0,1,.164-0.164,1.35,1.35,0,0,1,.223.094L7.441,3.723l1.031-.5L8.659,3.242a0.1,0.1,0,0,0,.07-0.023l0.105-.047A3.219,3.219,0,0,0,9.3,3.008a2.459,2.459,0,0,1,.3-0.117H9.913l0.117-.023q0.609-.2.645-0.2l0.316,0.023,0.774-.117a1.232,1.232,0,0,0,.469-0.07L12.867,2.6H13.1a4.126,4.126,0,0,0,.984.246l0.34,0.07,0.164-.023a0.244,0.244,0,0,1,.158.152,0.783,0.783,0,0,0,.228.252,1.209,1.209,0,0,1,.264.264,1.75,1.75,0,0,0,.229.258,0.442,0.442,0,0,1,.105.34,0.261,0.261,0,0,1-.234.105,0.7,0.7,0,0,0-.363.527,0.222,0.222,0,0,0,.094.188,0.91,0.91,0,0,1,.193.217,0.46,0.46,0,0,0,.4.146,0.8,0.8,0,0,0,.182-0.1,0.53,0.53,0,0,1,.229-0.1,0.761,0.761,0,0,0,.34-0.621L16.37,4.063l0.047-.434a1.177,1.177,0,0,0-.094-0.211l0.047-.2-0.223-.574A0.391,0.391,0,0,0,15.89,2.27a0.436,0.436,0,0,0-.205-0.334,0.429,0.429,0,0,1-.205-0.322,0.216,0.216,0,0,0-.176-0.2,2.939,2.939,0,0,0-.328.129,0.534,0.534,0,0,1-.082-0.105,0.9,0.9,0,0,0-.129-0.152L14.636,1.18a0.22,0.22,0,0,0-.094-0.07H14.249l-0.07-.023A0.335,0.335,0,0,0,13.992.9a0.335,0.335,0,0,0-.117.094l-0.2.023A0.405,0.405,0,0,0,13.324.828,0.652,0.652,0,0,0,13.1.945,2.325,2.325,0,0,0,12.8.8H12.714l-0.141-.082A0.12,0.12,0,0,0,12.456.676a0.187,0.187,0,0,0-.223.2v0.07l-0.023.047A1.378,1.378,0,0,0,11.449.781L10.992,0.9l-0.363-.023-0.3.094A0.021,0.021,0,0,1,10.3.945,0.419,0.419,0,0,0,10.124.852a0.487,0.487,0,0,0-.381.164,0.393,0.393,0,0,1-.24.164L9.409,1.156H9.316L7.9,1.59a0.441,0.441,0,0,0-.352.123q-0.105.123-.129,0.146L7.1,1.836,6.867,2.07H6.691a0.4,0.4,0,0,0-.375.316,3.055,3.055,0,0,0-.58.176,3.755,3.755,0,0,1-.4.182A4.442,4.442,0,0,0,4.5,3.26a1.311,1.311,0,0,0-.523.5l-0.212.094a1.934,1.934,0,0,1-.293.205,1.292,1.292,0,0,0-.334.287,4.47,4.47,0,0,1-.486.469l-0.047.164a0.708,0.708,0,0,0-.387.457,2.469,2.469,0,0,0-.668,1.324l-0.07.375a0.067,0.067,0,0,0,.023.047,1.1,1.1,0,0,0,.158.51,1.01,1.01,0,0,0,.34.369,1.858,1.858,0,0,1,.316.234,0.341,0.341,0,0,0,.193.117H2.726a0.317,0.317,0,0,1,.129.047l0.07,0.07a1.378,1.378,0,0,1,.316.141A1.425,1.425,0,0,0,3.7,8.8a4.1,4.1,0,0,0,.411.064q0.012,0,.352.164L4.8,8.984a0.2,0.2,0,0,1,.071.117,0.732,0.732,0,0,1,.328.117l0.293-.07a0.273,0.273,0,0,1,.188.047,0.572,0.572,0,0,0,.205.1,0.448,0.448,0,0,1,.2.105,0.482,0.482,0,0,0,.24.1L6.8,9.605a0.1,0.1,0,0,0,.07-0.023,4.841,4.841,0,0,0,.633.2L7.9,9.9H7.921l0.117-.047L8.133,9.875,8.18,9.992,9.024,10.4H9.118a2.414,2.414,0,0,1,.621.621L9.8,11.27a0.475,0.475,0,0,1,.094.141,0.131,0.131,0,0,1-.047.07l-0.105.188a0.747,0.747,0,0,1-.07.258,0.685,0.685,0,0,0-.07.176,1.206,1.206,0,0,0-.387.457l-0.3.34-0.094.234ZM4.994,15.934a1.458,1.458,0,0,1,.67-0.129,0.042,0.042,0,0,1,.047.047,0.249,0.249,0,0,1-.2.141q-0.2.07-.258,0.094l-0.188.141a1.551,1.551,0,0,0-.252.129,0.785,0.785,0,0,1-.229.094l-0.846.234a4.874,4.874,0,0,1-1.2.316,1,1,0,0,1,.435-0.246,6.088,6.088,0,0,0,.769-0.393,1.319,1.319,0,0,1,.493-0.217,0.765,0.765,0,0,0,.323-0.105l0.164,0.023A1.8,1.8,0,0,0,4.994,15.934Zm16.859-2.6-0.117.047a0.8,0.8,0,0,0-.239.24,0.958,0.958,0,0,1-.543.311,0.386,0.386,0,0,1-.082-0.293l0.047-.328L20.9,13.016A0.366,0.366,0,0,1,21,12.8a0.36,0.36,0,0,0,.1-0.193V12.582l0.164-.48a0.837,0.837,0,0,1,.07-0.211,2.027,2.027,0,0,0,.68-1.441A0.517,0.517,0,0,0,21.5,9.8a0.931,0.931,0,0,0-.921.428,0.72,0.72,0,0,1-.334.428q-0.094,0-.117-0.211a0.856,0.856,0,0,0-.8-1.008,0.261,0.261,0,0,0-.117.023l-0.188.094H19.006a0.73,0.73,0,0,0-.223-0.094h-0.07a4.782,4.782,0,0,1-.622.293H18a0.925,0.925,0,0,0-.417.152,3.345,3.345,0,0,1-.54.252,1.369,1.369,0,0,0-.493.311,1.182,1.182,0,0,1-.287.234,3.545,3.545,0,0,0-.892.656l-0.352.351a1.432,1.432,0,0,0-.4.363,1.619,1.619,0,0,1-.282.322,0.384,0.384,0,0,0-.164.3l-0.117.152a1.681,1.681,0,0,0-.275.369,1.654,1.654,0,0,0-.205.369L13.6,13.906q-0.223,0-.223.141L13.4,14.434V14.5a0.484,0.484,0,0,0-.023.188,0.842,0.842,0,0,0,.105.457l0.117,0.48a0.636,0.636,0,0,0,.457.422,1.966,1.966,0,0,0,.739.176,3.082,3.082,0,0,0,1.324-.621l0.07-.07A4.711,4.711,0,0,0,16.6,15.3l0.891-.727a0.943,0.943,0,0,0,.27-0.3,1.727,1.727,0,0,1,.129-0.205l0.223,0.024,0.117-.117a0.421,0.421,0,0,1,.211-0.135,0.247,0.247,0,0,0,.176-0.135l0.047-.07a1.021,1.021,0,0,0,.234-0.211,0.534,0.534,0,0,1,.152-0.293,0.4,0.4,0,0,0,.287-0.117,0.37,0.37,0,0,1,.17-0.117c0.031,0,.047.024,0.047,0.07l-0.07.574a0.381,0.381,0,0,0,.024.117,0.414,0.414,0,0,1,.023.129,0.1,0.1,0,0,1-.023.07,0.1,0.1,0,0,0-.024.07,0.2,0.2,0,0,0,.059.117,0.2,0.2,0,0,1,.059.117l-0.047.223a0.584,0.584,0,0,0,.105.369,0.521,0.521,0,0,1,.117.217,0.268,0.268,0,0,0,.082.152,1.251,1.251,0,0,1,.387.111,0.953,0.953,0,0,0,.41.088,0.468,0.468,0,0,0,.17-0.064,2.045,2.045,0,0,1,.375-0.135,0.834,0.834,0,0,0,.369-0.187l0.023-.117a1.621,1.621,0,0,0,.281-0.105,0.632,0.632,0,0,1,.346-0.234,0.328,0.328,0,0,0,.246-0.211A0.533,0.533,0,0,1,22.809,14l0.117-.164a0.841,0.841,0,0,0,.275-0.258,0.514,0.514,0,0,1,.229-0.2l0.082-.152,0.047-.328a1.6,1.6,0,0,0,.234-0.8,0.345,0.345,0,0,0-.094-0.187,0.248,0.248,0,0,0-.163-0.117,0.5,0.5,0,0,0-.385.287,0.967,0.967,0,0,1-.4.381,0.382,0.382,0,0,0-.251.252,0.19,0.19,0,0,1-.21.158l-0.187.164a1.14,1.14,0,0,0-.245.293h0Zm-3.88-.129a0.866,0.866,0,0,1-.316.2l-0.246.188q-0.445.246-.645,0.363a0.573,0.573,0,0,1-.234.205,0.749,0.749,0,0,0-.211.141,0.224,0.224,0,0,1-.117.076,0.2,0.2,0,0,0-.105.059l-0.223.117a0.512,0.512,0,0,0-.187.094,1.545,1.545,0,0,1-.346.17,1.4,1.4,0,0,1-.393.123q-0.223,0-.223-0.574a0.452,0.452,0,0,1,.135-0.252,0.657,0.657,0,0,0,.158-0.351,0.269,0.269,0,0,1,.164-0.246,0.753,0.753,0,0,0,.234-0.135l0.082-.2a1.347,1.347,0,0,1,.3-0.281,0.542,0.542,0,0,1,.363-0.41,1.77,1.77,0,0,0,.551-0.5,0.934,0.934,0,0,0,.445-0.229,1.879,1.879,0,0,1,.686-0.322,2.323,2.323,0,0,0,.516-0.17,0.645,0.645,0,0,1,.322-0.076l0.234,0.047,0.152-.024,0.164,0.082,0.223-.023,0.211,0.023,0.094-.059H19.79c0.031,0,.047.012,0.047,0.035a1.6,1.6,0,0,1-.416.516,6.15,6.15,0,0,1-.639.586,0.575,0.575,0,0,1-.287.275,0.546,0.546,0,0,0-.287.393A0.6,0.6,0,0,0,17.973,13.2Zm7.578-2.66a1.241,1.241,0,0,0-.521.357,1.327,1.327,0,0,1-.422.34,0.388,0.388,0,0,0-.229.193,0.26,0.26,0,0,1-.235.141,1.471,1.471,0,0,0-.592.363,1.133,1.133,0,0,0-.4.914q0,0.281.176,0.281a0.486,0.486,0,0,0,.416-0.152,1.064,1.064,0,0,1,.205-0.223L24.18,12.7a0.929,0.929,0,0,1,.246-0.094,3.077,3.077,0,0,1,.281-0.328,0.313,0.313,0,0,0,.27-0.129,0.694,0.694,0,0,1,.117-0.141q0.363-.094.434-0.117a0.45,0.45,0,0,0,.164-0.246l0.2-.094a0.863,0.863,0,0,1,.334-0.275,0.958,0.958,0,0,0,.252-0.146,1.335,1.335,0,0,1,.311-0.176,0.706,0.706,0,0,0,.322-0.24,0.194,0.194,0,0,1,.129-0.123,0.286,0.286,0,0,1,.3.34,0.636,0.636,0,0,1-.094.211,0.251,0.251,0,0,0-.117.182,0.631,0.631,0,0,1-.07.182l-0.152.211a1.074,1.074,0,0,1-.2.375,5.552,5.552,0,0,0-.469.832,1.089,1.089,0,0,1-.182.439,0.592,0.592,0,0,0-.135.252,2.4,2.4,0,0,1-.117.357,2.426,2.426,0,0,0-.094.8,0.892,0.892,0,0,0,.129.334,3.358,3.358,0,0,1,.211.475,1.018,1.018,0,0,0,.5.469q0.416,0.235.428,0.234l0.34-.023,0.188-.059a0.568,0.568,0,0,1,.176.082l0.281-.152,0.34-.07a2.529,2.529,0,0,1,.75-0.434,0.156,0.156,0,0,0,.188-0.164V15.441l-0.07-.117q0-.105.141-0.105h0.047l0.07,0.023a0.758,0.758,0,0,0,.176-0.094l0.047-.117q0.023-.164.094-0.164a0.243,0.243,0,0,1,.094.047,0.239,0.239,0,0,0,.094.047,0.418,0.418,0,0,0,.182-0.146,3.9,3.9,0,0,1,.5-0.416,5.207,5.207,0,0,0,.563-0.469,0.934,0.934,0,0,1,.311-0.234,0.388,0.388,0,0,0,.182-0.293,0.268,0.268,0,0,0,.222-0.193,0.522,0.522,0,0,1,.123-0.24,0.265,0.265,0,0,0,.088-0.141,0.192,0.192,0,0,0-.024-0.105l-0.023-.187v-0.07a0.347,0.347,0,0,0,.117-0.246,0.213,0.213,0,0,0-.246-0.234,0.508,0.508,0,0,0-.416.31,1.4,1.4,0,0,1-.205.311,1.326,1.326,0,0,0-.387.246,4.75,4.75,0,0,1-.633.563,2.617,2.617,0,0,0-.358.275,1.066,1.066,0,0,1-.34.217,1.313,1.313,0,0,0-.369.229,1.23,1.23,0,0,1-.393.229,1.642,1.642,0,0,0-.351.164,1.106,1.106,0,0,1-.34.141,0.736,0.736,0,0,0-.287.123,0.338,0.338,0,0,1-.117.076l-0.164-.047a0.879,0.879,0,0,1-.176.07q-0.457,0-.457-0.176a0.354,0.354,0,0,1,.088-0.187,0.883,0.883,0,0,0,.135-0.264,0.514,0.514,0,0,1,.094-0.193l0.094-.141a1.762,1.762,0,0,1,.147-0.27,0.23,0.23,0,0,0,.053-0.094V13.356a0.281,0.281,0,0,1,.234-0.176,2.371,2.371,0,0,0,.246-0.422l0.117-.082a4.5,4.5,0,0,1,.785-0.879,1.181,1.181,0,0,0,.2-0.633,3.024,3.024,0,0,0-.17-0.621,4.553,4.553,0,0,0-.264-0.668L28.821,9.7a0.741,0.741,0,0,0-.75-0.855,1.409,1.409,0,0,0-1.031.434,0.662,0.662,0,0,1-.176.164,0.255,0.255,0,0,0-.105.094,3.079,3.079,0,0,1-.82.645l-0.07.152-0.176.047Zm15.193,2.789-0.117.047a0.8,0.8,0,0,0-.239.24,0.958,0.958,0,0,1-.543.311,0.386,0.386,0,0,1-.082-0.293l0.047-.328-0.024-.293a0.367,0.367,0,0,1,.1-0.217,0.361,0.361,0,0,0,.1-0.193V12.582l0.164-.48a0.837,0.837,0,0,1,.07-0.211,2.027,2.027,0,0,0,.68-1.441A0.517,0.517,0,0,0,40.4,9.8a0.931,0.931,0,0,0-.92.428,0.72,0.72,0,0,1-.334.428q-0.094,0-.117-0.211a0.856,0.856,0,0,0-.8-1.008,0.262,0.262,0,0,0-.117.023l-0.188.094H37.9a0.729,0.729,0,0,0-.223-0.094H37.6a4.792,4.792,0,0,1-.622.293H36.888a0.924,0.924,0,0,0-.417.152,3.353,3.353,0,0,1-.54.252,1.368,1.368,0,0,0-.493.311,1.184,1.184,0,0,1-.287.234,3.545,3.545,0,0,0-.892.656l-0.352.351a1.432,1.432,0,0,0-.4.363,1.619,1.619,0,0,1-.282.322,0.384,0.384,0,0,0-.164.3l-0.117.152a1.677,1.677,0,0,0-.275.369,1.652,1.652,0,0,0-.205.369l0.023,0.316q-0.223,0-.223.141l0.023,0.387V14.5a0.487,0.487,0,0,0-.023.188,0.842,0.842,0,0,0,.105.457l0.117,0.48a0.636,0.636,0,0,0,.457.422,1.965,1.965,0,0,0,.738.176,3.082,3.082,0,0,0,1.324-.621l0.07-.07a4.7,4.7,0,0,0,.41-0.234l0.891-.727a0.943,0.943,0,0,0,.27-0.3,1.727,1.727,0,0,1,.129-0.205L37,14.094l0.117-.117a0.42,0.42,0,0,1,.211-0.135,0.247,0.247,0,0,0,.176-0.135l0.047-.07a1.023,1.023,0,0,0,.234-0.211,0.534,0.534,0,0,1,.153-0.293,0.4,0.4,0,0,0,.287-0.117A0.37,0.37,0,0,1,38.4,12.9c0.031,0,.047.024,0.047,0.07l-0.07.574a0.38,0.38,0,0,0,.023.117,0.411,0.411,0,0,1,.023.129,0.1,0.1,0,0,1-.023.07,0.1,0.1,0,0,0-.023.07,0.2,0.2,0,0,0,.059.117,0.2,0.2,0,0,1,.059.117l-0.047.223a0.584,0.584,0,0,0,.105.369,0.519,0.519,0,0,1,.117.217,0.268,0.268,0,0,0,.082.152,1.251,1.251,0,0,1,.386.111,0.954,0.954,0,0,0,.41.088,0.467,0.467,0,0,0,.17-0.064,2.045,2.045,0,0,1,.375-0.135,0.835,0.835,0,0,0,.369-0.187l0.023-.117a1.622,1.622,0,0,0,.281-0.105,0.631,0.631,0,0,1,.345-0.234,0.328,0.328,0,0,0,.246-0.211A0.533,0.533,0,0,1,41.7,14l0.117-.164a0.842,0.842,0,0,0,.275-0.258,0.514,0.514,0,0,1,.229-0.2l0.082-.152,0.047-.328a1.6,1.6,0,0,0,.234-0.8,0.345,0.345,0,0,0-.094-0.187,0.248,0.248,0,0,0-.164-0.117,0.5,0.5,0,0,0-.385.287,0.967,0.967,0,0,1-.4.381,0.382,0.382,0,0,0-.251.252,0.191,0.191,0,0,1-.21.158l-0.187.164a1.142,1.142,0,0,0-.245.293h0Zm-3.88-.129a0.868,0.868,0,0,1-.316.2L36.3,13.59q-0.445.246-.645,0.363a0.574,0.574,0,0,1-.234.205,0.75,0.75,0,0,0-.211.141,0.223,0.223,0,0,1-.117.076,0.2,0.2,0,0,0-.105.059l-0.223.117a0.512,0.512,0,0,0-.187.094,1.543,1.543,0,0,1-.346.17,1.4,1.4,0,0,1-.392.123q-0.223,0-.223-0.574a0.453,0.453,0,0,1,.135-0.252,0.657,0.657,0,0,0,.158-0.351,0.269,0.269,0,0,1,.164-0.246,0.753,0.753,0,0,0,.234-0.135l0.082-.2a1.347,1.347,0,0,1,.3-0.281,0.542,0.542,0,0,1,.364-0.41,1.77,1.77,0,0,0,.551-0.5,0.934,0.934,0,0,0,.445-0.229,1.88,1.88,0,0,1,.686-0.322,2.323,2.323,0,0,0,.516-0.17,0.645,0.645,0,0,1,.322-0.076l0.234,0.047,0.152-.024,0.164,0.082,0.223-.023,0.211,0.023,0.094-.059h0.023c0.031,0,.047.012,0.047,0.035a1.6,1.6,0,0,1-.416.516,6.14,6.14,0,0,1-.639.586,0.575,0.575,0,0,1-.287.275,0.546,0.546,0,0,0-.287.393A0.6,0.6,0,0,0,36.864,13.2Zm5.468-.4a0.243,0.243,0,0,0,.235.3,2.223,2.223,0,0,0,.633-0.352,2.2,2.2,0,0,1-.293.861,2.641,2.641,0,0,0-.334.727q-0.147.463-.146,0.475l0.023,0.211-0.07.246q0,0.012.152,0.363a0.466,0.466,0,0,0,.4.352,0.259,0.259,0,0,0,.135-0.07,3.152,3.152,0,0,1,.264-0.182A0.735,0.735,0,0,0,43.6,15.4a0.648,0.648,0,0,1,.135-0.24,6.366,6.366,0,0,0,.516-0.516,3.459,3.459,0,0,0,.481-0.551q0.023-.387.282-0.387a0.208,0.208,0,0,1,.1.029,0.188,0.188,0,0,0,.076.029,0.391,0.391,0,0,0,.141-0.228,0.383,0.383,0,0,1,.34-0.252l0.117-.223a0.486,0.486,0,0,0,.387-0.3l0.188-.059,0.094-.187a1.452,1.452,0,0,0,.3-0.205,0.7,0.7,0,0,1,.323-0.182,0.973,0.973,0,0,1,.5-0.3,0.844,0.844,0,0,0,.317-0.363V11.434L48.2,11.481a0.953,0.953,0,0,0,.188-0.264,0.2,0.2,0,0,1,.164-0.146,0.893,0.893,0,0,1,.176.07,0.169,0.169,0,0,0,.141.059,0.152,0.152,0,0,1,.117.188l-0.023.164,0.023,0.293a0.244,0.244,0,0,1-.023.141,7.641,7.641,0,0,0-.211,1.008l-0.117.715a0.723,0.723,0,0,0,.07.223l-0.105.164,0.059,0.246-0.023.234a0.394,0.394,0,0,0,.082.193,1.41,1.41,0,0,1,.152.34,0.391,0.391,0,0,0,.252.275,0.79,0.79,0,0,1,.275.141,0.267,0.267,0,0,0,.14.082,0.955,0.955,0,0,0,.55-0.105,2.63,2.63,0,0,1,.369-0.24,0.842,0.842,0,0,0,.24-0.158q0-.258.094-0.258l0.234,0.023a2.826,2.826,0,0,1,.363-0.34,0.547,0.547,0,0,1,.246-0.41l0.211,0.094a0.592,0.592,0,0,0,.293-0.351,1.288,1.288,0,0,0,.556-0.3,0.58,0.58,0,0,1,.252-0.193,0.363,0.363,0,0,0,.2-0.234l0.047-.117a1.843,1.843,0,0,0,.234-0.592A1.128,1.128,0,0,1,53.5,12.09a0.6,0.6,0,0,0,.059-0.246,0.15,0.15,0,0,0-.163-0.176,0.549,0.549,0,0,0-.362.2l-0.07.094a4.042,4.042,0,0,0-.783.533,2.185,2.185,0,0,0-.456.451,1.25,1.25,0,0,1-.42.275,0.178,0.178,0,0,0-.152.088,2.057,2.057,0,0,0-.316.34,0.254,0.254,0,0,1-.245.141,0.8,0.8,0,0,1-.257.211,0.1,0.1,0,0,1-.117-0.117l0.023-.246-0.047-.3,0.047-.223a3.506,3.506,0,0,1,.164-0.551,5.354,5.354,0,0,0,.188-0.621l0.129-.574,0.094-.727a0.655,0.655,0,0,0-.352-0.709A1.674,1.674,0,0,0,49.643,9.7l-0.176.023L49.373,9.7H49.3a2.112,2.112,0,0,0-.552.146,2.2,2.2,0,0,0-.546.252,2.422,2.422,0,0,1-.411.24,1.1,1.1,0,0,0-.428.352,0.417,0.417,0,0,1-.246.217,0.235,0.235,0,0,0-.182.188,0.419,0.419,0,0,1-.381.223,0.3,0.3,0,0,0-.071.141,0.294,0.294,0,0,1-.117.164L46.251,11.6a1.739,1.739,0,0,1-.2.141l-0.117.082a0.951,0.951,0,0,1-.287.328,2.194,2.194,0,0,0-.434.469,0.986,0.986,0,0,1-.334.352,0.062,0.062,0,0,1-.07-0.07q0-.023.234-0.551a1.52,1.52,0,0,0,.264-0.521,2.3,2.3,0,0,1,.346-0.662l0.164-.352a2.564,2.564,0,0,1,.164-0.457q0.867-1.219.867-1.23V9.1A0.539,0.539,0,0,1,46.8,8.914q0-.2.316-0.2L47.3,8.773a0.665,0.665,0,0,1,.164-0.2l0.094-.094,1.09-1.559a1.418,1.418,0,0,1,.316-0.551,0.658,0.658,0,0,0,.205-0.422,0.659,0.659,0,0,1,.076-0.3,2.223,2.223,0,0,0,.481-1.289,0.335,0.335,0,0,1,.234-0.27l0.176-1.055q0.141-.469.141-0.5a1.415,1.415,0,0,0-.205-0.656A0.7,0.7,0,0,0,49.414,1.5a0.365,0.365,0,0,0-.346.217,0.9,0.9,0,0,1-.217.3,0.638,0.638,0,0,0-.182.27,1.3,1.3,0,0,1-.223.357,3.406,3.406,0,0,0-.322.463l-0.246.41-0.141.246a1.683,1.683,0,0,0-.293.475A0.654,0.654,0,0,1,47.3,4.5a4.836,4.836,0,0,0-.674,1.148,7.846,7.846,0,0,1-.322.744,2.248,2.248,0,0,0-.141.293q-0.035.1-.492,1.049a3,3,0,0,0-.455.984V8.82l-0.047.047-0.105.023-0.094.188a0.2,0.2,0,0,1-.14.164,4.708,4.708,0,0,1-.455,1.02q-0.059.035-.612,0.563a4.789,4.789,0,0,0-.588.609,0.538,0.538,0,0,1-.388.234L42.7,11.8a1.547,1.547,0,0,0-.365,1.008h0Zm16.935,2.484q-0.246.117-.457,0.211a0.9,0.9,0,0,0-.3.2,0.333,0.333,0,0,0-.093.223,1.131,1.131,0,0,0,.286.563,0.868,0.868,0,0,0,.444.387,0.931,0.931,0,0,1,.275.059l0.117,0.047a0.283,0.283,0,0,1,.146.094,0.613,0.613,0,0,0,.4.094,0.748,0.748,0,0,1,.269.105l0.164-.105a0.535,0.535,0,0,0,.245.105H61a0.281,0.281,0,0,1,.094-0.035l0.175,0.035h0.024l0.69-.27a0.374,0.374,0,0,0,.222-0.047l0.094-.094a1.185,1.185,0,0,0,.38-0.182,0.677,0.677,0,0,1,.17-0.111q0.3,0,.3-0.211a0.156,0.156,0,0,0-.047-0.1,0.471,0.471,0,0,1-.07-0.1L63.206,16.2a0.454,0.454,0,0,0,.438-0.3,0.736,0.736,0,0,1,.216-0.334,0.42,0.42,0,0,0,.152-0.117,1.262,1.262,0,0,1,.2-0.182,0.372,0.372,0,0,0,.158-0.24q0.023-.141.07-0.141a1.022,1.022,0,0,0,.435-0.5l0.141-.047,0.223,0.024,0.388-.07a2.452,2.452,0,0,0,.581-0.158,0.382,0.382,0,0,0,.158-0.111l0.094,0.07,0.246-.024,0.258,0.024L67.59,14a0.561,0.561,0,0,1,.152.094l0.188-.024a1.417,1.417,0,0,0,.551.07l0.164-.07,0.246,0.094,0.164-.07H69.1l0.176,0.117h0.211l0.094,0.024h0.105a0.176,0.176,0,0,1,.164.152l0.07,0.047h0.246a0.87,0.87,0,0,0,.375.117,0.406,0.406,0,0,0,.205.082,0.261,0.261,0,0,1,.158.059,1.632,1.632,0,0,0,.293.176l0.234,0.047a0.285,0.285,0,0,0,.141.07h0.34l0.047,0.047a0.344,0.344,0,0,0,.158.252,0.8,0.8,0,0,1,.229.228,2.191,2.191,0,0,0,1.1.434,0.476,0.476,0,0,0,.352-0.293,1.894,1.894,0,0,0,.176-0.937,0.449,0.449,0,0,0-.228-0.369,2.544,2.544,0,0,1-.3-0.229,0.694,0.694,0,0,0-.193-0.129,0.7,0.7,0,0,1-.147-0.082,1.919,1.919,0,0,0-.785-0.293,0.658,0.658,0,0,1-.293.094,0.185,0.185,0,0,1-.117-0.023l-0.363-.07a9.367,9.367,0,0,0-1.383-.3,0.114,0.114,0,0,0-.059-0.023l-0.141.047-0.551-.105-0.293.035a0.708,0.708,0,0,1-.2-0.041,0.725,0.725,0,0,0-.176-0.041H68.727a0.682,0.682,0,0,1-.223.105H68.481Q68.024,13.2,67.953,13.2H67.86l-0.187.059-0.2-.035-0.187.059-0.316-.024-0.141.024L66.559,13.2l-0.187.082a0.5,0.5,0,0,1-.123-0.041,0.465,0.465,0,0,0-.17-0.041,2.459,2.459,0,0,0-.3.129,0.7,0.7,0,0,0-.294-0.047,0.836,0.836,0,0,1,.024-0.293,1.644,1.644,0,0,0,.27-0.457,0.176,0.176,0,0,1-.023-0.07c0-.047.008-0.07,0.023-0.07l0.117-.094,0.094-.246a0.391,0.391,0,0,0,.117-0.123,1.263,1.263,0,0,1,.106-0.146,1.267,1.267,0,0,0,.105-0.146,0.691,0.691,0,0,0,.076-0.211,0.891,0.891,0,0,1,.053-0.182c0.016-.031.039-0.074,0.071-0.129a0.129,0.129,0,0,0-.082-0.094,0.253,0.253,0,0,1-.106-0.094,0.5,0.5,0,0,0,.41-0.217,0.988,0.988,0,0,1,.164-0.3,1.072,1.072,0,0,0,.176-0.346,1.605,1.605,0,0,1,.17-0.375A5.345,5.345,0,0,0,67.5,9.219l0.387-.949a1.135,1.135,0,0,0,.141-0.293V7.813a0.287,0.287,0,0,0,.152-0.223V7.5L68.6,6.512A0.8,0.8,0,0,0,68.74,6.2a1.424,1.424,0,0,1,.105-0.3,4.9,4.9,0,0,0,.995-0.668L70.4,4.66a0.756,0.756,0,0,1,.234-0.229,0.36,0.36,0,0,0,.176-0.322q0.573-.105.573-0.387a0.1,0.1,0,0,0-.023-0.07,1.13,1.13,0,0,1-.023-0.141,0.169,0.169,0,0,1,.152-0.141l0.129-.047h0.058a0.676,0.676,0,0,0,.07-0.316l0.211-.07a0.131,0.131,0,0,1,.07-0.047,1.741,1.741,0,0,1,.1-0.363,0.566,0.566,0,0,0,.053-0.234A0.276,0.276,0,0,1,72.2,2.141,0.191,0.191,0,0,0,72.392,2q0-.023-0.07-0.293l0.14-.445A1.09,1.09,0,0,0,72.128.389,1.043,1.043,0,0,0,71.677.1,1.532,1.532,0,0,0,70.7.43a0.868,0.868,0,0,0-.416.586v0.07a0.181,0.181,0,0,1,.023.07,0.088,0.088,0,0,1-.094.105H70.167a0.1,0.1,0,0,0-.059-0.035,0.377,0.377,0,0,0-.328.246l-0.433.762-0.07.035q-0.246.047-.246,0.141l0.047,0.363-0.14.07a0.857,0.857,0,0,0-.363.715,0.863,0.863,0,0,0-.48.8V4.4L68.141,4.52V4.566a3.7,3.7,0,0,1-.468.439,1.165,1.165,0,0,0-.246.545,0.151,0.151,0,0,0-.094.07,0.385,0.385,0,0,1,.023.094,1.89,1.89,0,0,1-.2.393,0.85,0.85,0,0,1-.468.422,0.421,0.421,0,0,0-.263.123l-0.14.176a0.288,0.288,0,0,0-.2.164,5.082,5.082,0,0,1-1.147.551,0.539,0.539,0,0,0-.38.205,0.482,0.482,0,0,1-.193.182L64.2,7.906,64,7.93a0.14,0.14,0,0,1-.117-0.064,0.6,0.6,0,0,0-.3-0.123l-0.223-.059H63.307a1.1,1.1,0,0,1-.2.082,0.934,0.934,0,0,0-.492.346,0.952,0.952,0,0,0-.293.627,0.177,0.177,0,0,0,.07.141,0.457,0.457,0,0,1,.117.229,0.345,0.345,0,0,0,.387.17,0.488,0.488,0,0,0,.152-0.041,1.565,1.565,0,0,1,.2-0.064,0.183,0.183,0,0,0,.1-0.211V8.867H63.4a0.566,0.566,0,0,0,.293.141,0.285,0.285,0,0,0,.141-0.07,0.284,0.284,0,0,1,.141-0.07l0.141-.07a0.986,0.986,0,0,1,.45-0.158A1.09,1.09,0,0,0,65.18,8.27a0.623,0.623,0,0,0,.357-0.187,1.069,1.069,0,0,1,.217-0.176l0.328-.176A2.24,2.24,0,0,1,66.4,7.566V7.613l-0.363.7a3.093,3.093,0,0,1-.392.8,0.759,0.759,0,0,0-.181.3V9.629l-0.117.07-0.093.316a0.471,0.471,0,0,1-.152.211,0.422,0.422,0,0,1,.023.152,0.137,0.137,0,0,1-.023.094l-0.117.07-0.141.164a1.6,1.6,0,0,1-.357.51,1.036,1.036,0,0,0-.252.275,0.556,0.556,0,0,0-.094.2V11.82a0.243,0.243,0,0,1-.129.152,0.792,0.792,0,0,0-.24.281,1.1,1.1,0,0,0-.135.258v0.117a2.63,2.63,0,0,1-.363.6l-0.258.363a2.071,2.071,0,0,0-.252.322,0.732,0.732,0,0,1-.158.205,1.487,1.487,0,0,0-.691.176l-0.527.352a0.2,0.2,0,0,0-.141-0.07,1.726,1.726,0,0,0-.726.188l-0.363.176-0.375.07ZM70.715,3.049a3.617,3.617,0,0,1-.632.65,0.041,0.041,0,0,1-.047-0.047,0.621,0.621,0,0,1,.1-0.211,0.863,0.863,0,0,0,.111-0.229,2.51,2.51,0,0,1,.187-0.4,1.539,1.539,0,0,0,.187-0.469,2.164,2.164,0,0,1,.433-0.662q0.421-.527.48-0.633A0.875,0.875,0,0,1,71.932.8a0.778,0.778,0,0,1,.023.188,2.226,2.226,0,0,1-.345.973,3.009,3.009,0,0,1-.439.68l-0.339.223A0.63,0.63,0,0,0,70.715,3.049ZM60.491,15.395l0.865-.27q0.093-.023.643-0.07l-0.07.246a0.916,0.916,0,0,0-.094.211,1.386,1.386,0,0,0-.362.387,0.862,0.862,0,0,0-.281.146,2.167,2.167,0,0,1-.175.135l-0.281-.023a0.021,0.021,0,0,0-.023.023q-0.246.176-.292,0.2l-0.093-.047-0.316.023-0.327-.07A0.487,0.487,0,0,1,59.4,16.2a0.973,0.973,0,0,0-.327-0.135,0.277,0.277,0,0,0-.047-0.07,0.16,0.16,0,0,1,.14-0.117l0.433-.2q0.093-.035.889-0.281h0ZM79.44,6.553a0.706,0.706,0,0,0,.416.229,0.737,0.737,0,0,0,.463-0.17,0.534,0.534,0,0,0,.228-0.4A1.04,1.04,0,0,1,80.594,5.9,0.379,0.379,0,0,0,80.629,5.8,1.03,1.03,0,0,0,80.4,5.229a0.829,0.829,0,0,0-.44-0.369,4.482,4.482,0,0,1-.492.152,0.508,0.508,0,0,0-.375.609v0.07l0.07,0.457A0.748,0.748,0,0,0,79.44,6.553Zm-5.314,5.525-0.094.551a0.307,0.307,0,0,0,.328.363,0.573,0.573,0,0,0,.234-0.135,0.664,0.664,0,0,0,.234-0.3,0.321,0.321,0,0,1,.188-0.211l0.258-.07a0.6,0.6,0,0,0,.34-0.246q0.023-.258.141-0.258H75.8l0.152,0.07,0.094-.024a0.346,0.346,0,0,1,.2-0.176,0.105,0.105,0,0,0,.106-0.07,0.411,0.411,0,0,1,.129-0.117l0.211,0.07a1.032,1.032,0,0,1,.293-0.187,0.124,0.124,0,0,1,.141.141,0.769,0.769,0,0,1-.106.211,0.835,0.835,0,0,0-.123.334,0.407,0.407,0,0,1-.111.252l-0.117.164-0.047.211q-0.07.223-.094,0.316a0.351,0.351,0,0,0-.117.188l-0.059.293q-0.024.094-.047,0.24a0.692,0.692,0,0,1-.07.228,1.011,1.011,0,0,0-.047.4l0.023,0.07-0.023.164a1.515,1.515,0,0,0,.07.217,1.072,1.072,0,0,1,.07.24l-0.023.164v0.07a0.674,0.674,0,0,0,.287.51,0.832,0.832,0,0,0,.486.24l0.234-.07,0.176,0.023a0.318,0.318,0,0,0,.188-0.123,0.413,0.413,0,0,1,.275-0.135,0.49,0.49,0,0,0,.229-0.059l0.211-.117a1.417,1.417,0,0,1,.346-0.193,1.074,1.074,0,0,0,.217-0.1l0.07-.117,0.5-.363a2.541,2.541,0,0,0,.357-0.311A3.625,3.625,0,0,1,80.412,14a1.486,1.486,0,0,0,.381-0.322,0.9,0.9,0,0,1,.181-0.205,0.752,0.752,0,0,0,.193-0.334,2.242,2.242,0,0,1,.182-0.41,0.836,0.836,0,0,0,.1-0.428,0.179,0.179,0,0,0-.176-0.223,0.878,0.878,0,0,0-.48.316l-1.533,1.172a3.853,3.853,0,0,0-.5.229,1.059,1.059,0,0,1-.228.111l-0.257.258-0.187-.024a0.479,0.479,0,0,0-.316.07,0.266,0.266,0,0,1-.07-0.047,0.243,0.243,0,0,0,.164-0.211v-0.48c0-.047.008-0.07,0.023-0.07a0.325,0.325,0,0,0,.129-0.176l-0.07-.281a0.321,0.321,0,0,1,.164-0.187l0.047-.246a1.415,1.415,0,0,0,.445-1.055l0.2-.914a0.955,0.955,0,0,0-.369-0.662,1.07,1.07,0,0,0-.709-0.346,0.516,0.516,0,0,0-.381.146,1.274,1.274,0,0,1-.334.24l-0.153.07a1.171,1.171,0,0,1-.34.322,0.756,0.756,0,0,0-.281.275,0.615,0.615,0,0,0-.188-0.023,0.529,0.529,0,0,0-.311.193,1.106,1.106,0,0,1-.282.229,0.4,0.4,0,0,0-.135.082l-0.188.141a0.992,0.992,0,0,0-.41.41l-0.117.047a0.457,0.457,0,0,1-.246.176h-0.07l-0.188.164Zm17.338,1.875a1.719,1.719,0,0,1-.329.281,0.456,0.456,0,0,1-.27.246l-0.376.105a0.414,0.414,0,0,1-.164-0.258l-0.234-.492V13.731a0.111,0.111,0,0,1,.059-0.117,1,1,0,0,0,.234-0.762l-0.023-.223,0.094-.644V11.938l-0.047-.316,0.023-.211a1.483,1.483,0,0,0-.346-0.774,0.966,0.966,0,0,0-1.253-.393q-0.228.088-.345,0.123a0.42,0.42,0,0,0-.14.059l-0.164.094-0.176.047a0.99,0.99,0,0,1-.4.211,0.5,0.5,0,0,0-.281.152,1.318,1.318,0,0,1-.421.258l-0.094.176-0.117.094a1.166,1.166,0,0,1-.363.176,0.669,0.669,0,0,0-.41.387,0.387,0.387,0,0,1-.17.141,1.658,1.658,0,0,0-.263.182,0.335,0.335,0,0,1-.187.1,0.1,0.1,0,0,1-.117-0.094,0.676,0.676,0,0,1,.141-0.316,2.108,2.108,0,0,0,.07-0.457l-0.023-.316a1.467,1.467,0,0,0-.34-0.756,1.134,1.134,0,0,0-.984-0.475,0.438,0.438,0,0,0-.386.328,0.9,0.9,0,0,1-.538.48l-0.082.117a0.978,0.978,0,0,0-.539.211,6.01,6.01,0,0,1-.662.416,0.985,0.985,0,0,0-.5.533l-0.246.668q0,0.422.294,0.422h0.071a1.3,1.3,0,0,1,.305-0.187,0.1,0.1,0,0,0,.082-0.094,0.657,0.657,0,0,1,.258-0.27,4.5,4.5,0,0,0,.61-0.41l0.188,0.035a0.779,0.779,0,0,1,.352-0.34,1.143,1.143,0,0,0,.422-0.293L83.7,11.691a1.125,1.125,0,0,1-.158.3,1.049,1.049,0,0,0-.17.363,0.272,0.272,0,0,1-.07.17,0.179,0.179,0,0,0-.059.129,0.285,0.285,0,0,1-.047.246H83.047a0.919,0.919,0,0,0-.187.217,0.789,0.789,0,0,1-.275.258,0.223,0.223,0,0,0-.135.217v0.094l-0.023.047q-0.5.117-.5,1.418a0.852,0.852,0,0,0,.158.428,0.611,0.611,0,0,0,.287.287,1.064,1.064,0,0,1,.217.082,0.322,0.322,0,0,0,.135.047,0.478,0.478,0,0,0,.258-0.316,0.718,0.718,0,0,0,.247-0.17,0.634,0.634,0,0,1,.164-0.135h0.118l0.047-.047a0.492,0.492,0,0,1,.082-0.176,0.434,0.434,0,0,0,.376-0.187q0.07-.387.223-0.387a1.017,1.017,0,0,1,.21.141,1.5,1.5,0,0,1,.245-0.258,0.493,0.493,0,0,0,.21-0.187,0.251,0.251,0,0,1,.158-0.3,1.383,1.383,0,0,0,.508-0.346q0.35-.316.788-0.674a2.617,2.617,0,0,0,.438-0.393,1.377,1.377,0,0,0,.187-0.141l0.093-.07a0.656,0.656,0,0,0,.269-0.129,0.432,0.432,0,0,0,.269-0.1,2.74,2.74,0,0,1,.444-0.252l0.082-.023a0.392,0.392,0,0,1,.233-0.129,0.2,0.2,0,0,1,.21.246l-0.023.281L88.6,12.535l-0.07.574a0.4,0.4,0,0,0,.035.135,0.4,0.4,0,0,1,.035.135,0.262,0.262,0,0,1-.094.141,0.725,0.725,0,0,1,.07.27,0.7,0.7,0,0,0,.064.316,0.549,0.549,0,0,1,.065.164v0.023a1.422,1.422,0,0,0-.106.234,0.536,0.536,0,0,0,.053.135,0.452,0.452,0,0,1,.053.158,2.036,2.036,0,0,0,.276.5,1.059,1.059,0,0,0,.417.434,1.585,1.585,0,0,1,.323.146,0.543,0.543,0,0,0,.252.094l0.223-.047,0.329,0.047a0.244,0.244,0,0,0,.153-0.07l0.164-.117a0.951,0.951,0,0,0,.481-0.434l0.094-.047h0.188a0.292,0.292,0,0,0,.106-0.246l0.458-.387a1.084,1.084,0,0,1,.211-0.164l0.317-.164,0.6-.633q0.3-.316.452-0.48a0.547,0.547,0,0,0,.147-0.375l-0.047-.387,0.106-.234q0-.129-0.176-0.129a0.349,0.349,0,0,0-.247.152l-0.094.117-0.141.07L93,12.723q-0.447.27-.652,0.387a0.536,0.536,0,0,0-.264.34,0.414,0.414,0,0,0-.188.34,0.068,0.068,0,0,1-.047.023l-0.118-.047H91.686a0.239,0.239,0,0,0-.223.188h0Zm3.02,1.459a1.617,1.617,0,0,1,.176.322,0.815,0.815,0,0,0,.293.31,1.1,1.1,0,0,0,.669.182,1.326,1.326,0,0,0,.962-0.352,0.7,0.7,0,0,1,.188-0.094q0.105-.187.164-0.27l0.2-.047a0.176,0.176,0,0,0,.07.024,0.582,0.582,0,0,0,.176-0.281,0.515,0.515,0,0,1,.293-0.322,0.262,0.262,0,0,0,.205-0.2,0.184,0.184,0,0,1,.088-0.158,0.272,0.272,0,0,0,.235-0.275,0.29,0.29,0,0,1,.153-0.275h0.023l0.141,0.094a0.743,0.743,0,0,0,.246-0.434,1.874,1.874,0,0,0,.487-0.492,0.517,0.517,0,0,1,.135-0.2l0.07-.047a0.611,0.611,0,0,1,.153-0.117q0.164,0,.234-0.363l0.094-.047,0.023-.152a0.925,0.925,0,0,1,.293.75l0.024,0.48a2.439,2.439,0,0,1,.193.662,1.022,1.022,0,0,0,.463.609,1.523,1.523,0,0,0,.95.334l0.363-.07a0.639,0.639,0,0,0,.434-0.117,1.461,1.461,0,0,1,.188-0.152h0.269a0.375,0.375,0,0,0,.153-0.2,0.309,0.309,0,0,1,.269-0.2,0.177,0.177,0,0,1,.106.047,1.815,1.815,0,0,0,.211-0.387l0.223,0.047a0.692,0.692,0,0,0,.164-0.187V13.731a0.243,0.243,0,0,1,.164-0.182,1.2,1.2,0,0,0,.363-0.369,0.454,0.454,0,0,0,.381-0.246,1.152,1.152,0,0,1,.241-0.352,0.462,0.462,0,0,0,.363-0.5,2.174,2.174,0,0,0-.117-0.363l0.094-.328c0-.078-0.066-0.117-0.2-0.117a0.409,0.409,0,0,0-.234.117l-0.093.094a0.877,0.877,0,0,0-.433.422,3.018,3.018,0,0,1-.924.82,1.045,1.045,0,0,0-.094.117,0.379,0.379,0,0,1-.181.129,0.5,0.5,0,0,0-.169.094,2.019,2.019,0,0,1-.912.727l-0.164.07a0.827,0.827,0,0,1-.317.211c-0.093,0-.14-0.062-0.14-0.187l0.023-.269-0.141-.481,0.047-.164-0.023-.316,0.141-.809a1.839,1.839,0,0,1,.363-1.207l0.094-.3a2.325,2.325,0,0,0,.433-0.551l-0.094-.293a0.281,0.281,0,0,1,.141-0.164A0.411,0.411,0,0,0,103.335,9c0.031-.2.106-0.3,0.223-0.3a0.238,0.238,0,0,0,.234-0.234q0-.433.164-0.457a0.307,0.307,0,0,0,.24-0.229,1.412,1.412,0,0,1,.241-0.4,1.622,1.622,0,0,0,.269-0.645l0.047-.023a0.2,0.2,0,0,0,.164-0.187V6.277a1.518,1.518,0,0,0,.481-0.727,0.526,0.526,0,0,1,.14-0.07l0.656-1.605a1.586,1.586,0,0,1,.153-0.4,1.03,1.03,0,0,0,.129-0.445l0.023-.141a1.746,1.746,0,0,0,.129-0.434,0.785,0.785,0,0,0-.281-0.545,0.8,0.8,0,0,0-.539-0.275,0.606,0.606,0,0,0-.528.27l-0.269.281a2.9,2.9,0,0,0-.463.58q-0.323.475-.457,0.7a4.08,4.08,0,0,1-.445.58,1.055,1.055,0,0,0-.311.492l0.047,0.164-0.023.082a0.919,0.919,0,0,1-.276.129,0.426,0.426,0,0,0-.228.311,1.166,1.166,0,0,1-.141.322,0.953,0.953,0,0,0-.123.182q-0.076.135-.135,0.229a0.48,0.48,0,0,0-.07.205,0.3,0.3,0,0,1-.154.205l-0.141.211a3.309,3.309,0,0,1-.484,1.008,4.067,4.067,0,0,0-.247.58,0.666,0.666,0,0,1-.071.193,2.35,2.35,0,0,1-.436.961l-0.141.188a0.663,0.663,0,0,1-.247.434,0.77,0.77,0,0,0-.093-0.117,0.908,0.908,0,0,1-.118-0.316,0.821,0.821,0,0,0-.323-0.457,0.837,0.837,0,0,0-.5-0.187,0.513,0.513,0,0,0-.3.188,0.935,0.935,0,0,0-.246-0.094,0.253,0.253,0,0,0-.141.047,0.252,0.252,0,0,1-.141.047H98.471a1.128,1.128,0,0,0-.328.188,0.931,0.931,0,0,0-.587.34l-0.047.023a0.48,0.48,0,0,0-.246.094q-0.082.07-.317,0.234a1.472,1.472,0,0,0-.4.422,2.782,2.782,0,0,0-.763.785l-0.094.024-0.07.152a4.227,4.227,0,0,0-.464.744,5.009,5.009,0,0,0-.334.686,1.467,1.467,0,0,1-.252.4,1.132,1.132,0,0,0-.229.709l0.07,0.211a0.159,0.159,0,0,1-.117.047,0.62,0.62,0,0,0-.07.223l0.094,0.6A1.085,1.085,0,0,0,94.483,15.412Zm8.734-8.15a0.462,0.462,0,0,1,.176-0.158,0.343,0.343,0,0,0,.176-0.275V6.605l0.105-.094a1.664,1.664,0,0,1,.094-0.34l0.164-.164a0.7,0.7,0,0,1,.24-0.229,0.424,0.424,0,0,0,.176-0.275,3.463,3.463,0,0,1,.311-0.633l0.4-.668a1.393,1.393,0,0,0,.229-0.346,0.173,0.173,0,0,1,.158-0.135,0.507,0.507,0,0,1,.047.34,0.4,0.4,0,0,1-.106.328,1.256,1.256,0,0,0-.252.48,1.578,1.578,0,0,1-.31.563,1.242,1.242,0,0,0-.217.264,3.027,3.027,0,0,1-.228.334,0.752,0.752,0,0,0-.176.316,1.082,1.082,0,0,0-.276.381,0.25,0.25,0,0,1-.228.193,4.75,4.75,0,0,0-.481.621,0.436,0.436,0,0,1-.269.316l0.117-.34Zm-4.359,5.133-0.023.141a0.163,0.163,0,0,1-.082.129,0.386,0.386,0,0,0-.117.123,0.229,0.229,0,0,1-.123.1,0.865,0.865,0,0,0-.252.217,1.3,1.3,0,0,1-.264.24,0.161,0.161,0,0,0-.1.105l-0.094.094a0.472,0.472,0,0,0-.141.117,2.975,2.975,0,0,0-.346.322,2.909,2.909,0,0,1-.487.416,1.8,1.8,0,0,0-.2.129,1.137,1.137,0,0,1-.75.41,0.224,0.224,0,0,1-.235-0.24,2.342,2.342,0,0,0-.07-0.4,2.1,2.1,0,0,0,.182-0.457,1.124,1.124,0,0,1,.322-0.5,1.031,1.031,0,0,1,.328-0.551V12.629a0.539,0.539,0,0,1,.246-0.287,1.356,1.356,0,0,0,.375-0.357,0.281,0.281,0,0,1,.223-0.293h0.07l0.6-.48a0.581,0.581,0,0,1,.234-0.3l0.27,0.047A1.527,1.527,0,0,1,99,10.613l0.293,0.047a1.031,1.031,0,0,1,.264-0.094,1.3,1.3,0,0,0,.24-0.07,0.658,0.658,0,0,1,.141-0.047,0.371,0.371,0,0,1,.27.117,3.25,3.25,0,0,1-.387.6,4.385,4.385,0,0,1-.481.609,0.426,0.426,0,0,1-.258.352L99,12.277Zm11.085-5.842a0.708,0.708,0,0,0,.416.229,0.736,0.736,0,0,0,.463-0.17,0.534,0.534,0,0,0,.229-0.4A1,1,0,0,1,111.1,5.9a0.393,0.393,0,0,0,.035-0.105,1.026,1.026,0,0,0-.229-0.568,0.83,0.83,0,0,0-.439-0.369,4.556,4.556,0,0,1-.492.152,0.508,0.508,0,0,0-.375.609v0.07l0.07,0.457A0.75,0.75,0,0,0,109.943,6.553Zm-5.314,5.525-0.094.551a0.307,0.307,0,0,0,.328.363,0.573,0.573,0,0,0,.235-0.135,0.663,0.663,0,0,0,.234-0.3,0.321,0.321,0,0,1,.188-0.211l0.258-.07a0.6,0.6,0,0,0,.34-0.246c0.015-.172.062-0.258,0.14-0.258h0.047l0.153,0.07,0.094-.024a0.342,0.342,0,0,1,.2-0.176,0.1,0.1,0,0,0,.1-0.07,0.415,0.415,0,0,1,.129-0.117l0.211,0.07a1.035,1.035,0,0,1,.293-0.187,0.124,0.124,0,0,1,.141.141,0.759,0.759,0,0,1-.106.211,0.844,0.844,0,0,0-.123.334,0.405,0.405,0,0,1-.111.252l-0.117.164-0.047.211c-0.047.149-.078,0.254-0.094,0.316a0.35,0.35,0,0,0-.117.188l-0.059.293c-0.015.063-.031,0.143-0.046,0.24a0.7,0.7,0,0,1-.071.228,1.016,1.016,0,0,0-.047.4l0.024,0.07-0.024.164a1.544,1.544,0,0,0,.071.217,1.058,1.058,0,0,1,.07.24l-0.023.164v0.07a0.672,0.672,0,0,0,.287.51,0.83,0.83,0,0,0,.486.24l0.234-.07,0.176,0.023a0.317,0.317,0,0,0,.187-0.123,0.413,0.413,0,0,1,.276-0.135,0.49,0.49,0,0,0,.228-0.059l0.211-.117a1.428,1.428,0,0,1,.346-0.193,1.081,1.081,0,0,0,.217-0.1l0.07-.117,0.5-.363a2.624,2.624,0,0,0,.357-0.311A3.6,3.6,0,0,1,110.916,14a1.487,1.487,0,0,0,.381-0.322,0.881,0.881,0,0,1,.182-0.205,0.756,0.756,0,0,0,.193-0.334,2.175,2.175,0,0,1,.182-0.41,0.839,0.839,0,0,0,.1-0.428,0.179,0.179,0,0,0-.175-0.223,0.874,0.874,0,0,0-.48.316l-1.533,1.172a3.841,3.841,0,0,0-.5.229,1.037,1.037,0,0,1-.228.111l-0.257.258-0.188-.024a0.478,0.478,0,0,0-.316.07,0.259,0.259,0,0,1-.07-0.047,0.243,0.243,0,0,0,.164-0.211v-0.48c0-.047.007-0.07,0.023-0.07a0.325,0.325,0,0,0,.129-0.176l-0.07-.281a0.319,0.319,0,0,1,.164-0.187l0.047-.246a1.416,1.416,0,0,0,.445-1.055l0.2-.914a0.955,0.955,0,0,0-.369-0.662,1.071,1.071,0,0,0-.709-0.346,0.517,0.517,0,0,0-.382.146,1.278,1.278,0,0,1-.334.24l-0.153.07a1.165,1.165,0,0,1-.34.322,0.755,0.755,0,0,0-.281.275,0.618,0.618,0,0,0-.188-0.023,0.531,0.531,0,0,0-.311.193,1.1,1.1,0,0,1-.282.229,0.4,0.4,0,0,0-.134.082l-0.188.141a0.992,0.992,0,0,0-.411.41l-0.117.047a0.46,0.46,0,0,1-.246.176h-0.071l-0.188.164Zm6.99,10.981a0.971,0.971,0,0,0,.3-0.2l0.223-.2a1.506,1.506,0,0,0,.692-0.527,0.981,0.981,0,0,1,.363-0.258,1.387,1.387,0,0,0,.621-0.75l0.07-.07,0.117-.023a1.135,1.135,0,0,0,.311-0.264,0.927,0.927,0,0,0,.281-0.387c0.012-.082.02-0.133,0.024-0.152a0.558,0.558,0,0,1,.252-0.088,3.815,3.815,0,0,0,.8-1.148l0.118,0.047a0.936,0.936,0,0,0,.222-0.481,0.413,0.413,0,0,1,.352-0.387,1.422,1.422,0,0,0,.294-0.416,2.047,2.047,0,0,0,.164-0.346c0.078-.078.141-0.137,0.188-0.176a0.2,0.2,0,0,1-.024-0.094,0.083,0.083,0,0,1,.095-0.094,0.334,0.334,0,0,1,.17.053,0.834,0.834,0,0,0,.241.088v0.047l0.07-.024a0.706,0.706,0,0,0,.341.152,1.288,1.288,0,0,0,.715-0.316q0.129-.422.129-0.457a0.8,0.8,0,0,0-.229-0.416,1.558,1.558,0,0,0-.41-0.375,1.482,1.482,0,0,1-.2-0.123,1.233,1.233,0,0,0,.188-0.434,1.047,1.047,0,0,1,.2-0.5l-0.023-.164a0.075,0.075,0,0,1,.046-0.07l0.118-.117q0.222-.551.281-0.68a7.666,7.666,0,0,0,.469-1.43,2.126,2.126,0,0,1,.287-0.445,1.425,1.425,0,0,0,.24-0.879,5.566,5.566,0,0,0-.106-0.691l-0.046-.059V10.18a0.325,0.325,0,0,0-.352-0.234,0.663,0.663,0,0,0-.223.117l-0.164.117a0.581,0.581,0,0,1-.14.176,0.617,0.617,0,0,1-.135-0.387,0.374,0.374,0,0,0-.322-0.387H118a0.965,0.965,0,0,0-.294.059l-0.423.117a1.031,1.031,0,0,1-.505.258,0.388,0.388,0,0,1-.247.094l-0.164-.024a3.688,3.688,0,0,0-.846.223l-0.211.094a1.955,1.955,0,0,0-.429.176,0.407,0.407,0,0,1-.147.076,2.075,2.075,0,0,0-.375.217l-0.6.4a7.087,7.087,0,0,0-.588.434q-0.27.223-1.057,1.008l-0.75.738-0.293.363a0.668,0.668,0,0,0-.4.691,0.23,0.23,0,0,0,.281.234,0.375,0.375,0,0,0,.158-0.07,0.394,0.394,0,0,1,.2-0.07h0.024a1.312,1.312,0,0,0,.48,1.143,2.147,2.147,0,0,1,.5.182A0.975,0.975,0,0,0,112.8,15.8a2.236,2.236,0,0,1,.281-0.17l0.2-.07,0.34-.234a0.545,0.545,0,0,0,.421-0.316h0.175a0.554,0.554,0,0,1,.234-0.07,0.385,0.385,0,0,0,.141-0.246c0-.125.082-0.187,0.245-0.187l0.117,0.023,0.094-.117a0.414,0.414,0,0,1,.228-0.123A0.849,0.849,0,0,0,115.659,14a0.345,0.345,0,0,1,.117-0.234l0.14,0.024a3.377,3.377,0,0,1,.327-0.187,0.124,0.124,0,0,0,.083-0.059l0.07-.117,0.093-.024a0.425,0.425,0,0,1,.27-0.246,2.861,2.861,0,0,0,.257-0.281,2.838,2.838,0,0,0,.727-0.434,0.041,0.041,0,0,1,.046.047l-0.2.434,0.082,0.211a0.217,0.217,0,0,1-.1.088,0.683,0.683,0,0,0-.194.346l0.071,0.2a0.021,0.021,0,0,1-.024.024,2.514,2.514,0,0,0-.187.346,0.682,0.682,0,0,1-.135.229,0.242,0.242,0,0,0-.076.141c-0.024.078-.051,0.184-0.082,0.316q-0.206.375-.257,0.492c-0.034.078-.075,0.162-0.125,0.252a1.007,1.007,0,0,1-.617.234,3.691,3.691,0,0,0-.8.217l-0.316.094h-0.094a5.206,5.206,0,0,0-.457.363l-0.68.188a1.352,1.352,0,0,0-.328.176L113.154,17a10.012,10.012,0,0,0-.85.709,1.9,1.9,0,0,0-.451.486,1.229,1.229,0,0,0-.34.387l-0.047.094a5.609,5.609,0,0,1-.375.551,4.468,4.468,0,0,0-.474.861q-0.252.568-.252,0.58a1.933,1.933,0,0,1-.17.463,2.664,2.664,0,0,0-.147,1.049,1.356,1.356,0,0,0,.276.8,0.745,0.745,0,0,0,.568.387,0.471,0.471,0,0,0,.246-0.07l0.188-.129Zm3.61-9.656-0.129.211a1.162,1.162,0,0,0-.528.328,0.433,0.433,0,0,1-.263.2,0.355,0.355,0,0,0-.241.2l-0.445-.023a0.287,0.287,0,0,0-.129.094,1.952,1.952,0,0,1-.416.264,1.23,1.23,0,0,1-.439.17,0.068,0.068,0,0,1-.082-0.07,1.078,1.078,0,0,1,.123-0.369,0.887,0.887,0,0,1,.193-0.31L112.99,14a0.863,0.863,0,0,1,.217-0.193,1.093,1.093,0,0,0,.275-0.281,0.679,0.679,0,0,1,.375-0.264,0.41,0.41,0,0,1,.252-0.2,1.332,1.332,0,0,0,.463-0.363,0.506,0.506,0,0,0,.147-0.129,1.181,1.181,0,0,1,.24-0.2,0.461,0.461,0,0,0,.27-0.047l0.093-.047a0.176,0.176,0,0,0,.153-0.123,0.241,0.241,0,0,1,.17-0.146,0.74,0.74,0,0,0,.251-0.117l0.211-.176c0.25-.109.446-0.2,0.586-0.281l0.235,0.023a0.388,0.388,0,0,0,.17-0.094,0.459,0.459,0,0,1,.287-0.094c0.047,0,.07.016,0.07,0.047a0.64,0.64,0,0,1-.105.3,0.4,0.4,0,0,1-.246.211,0.65,0.65,0,0,0-.317.369l-0.117.082a1.754,1.754,0,0,0-.668.586,0.482,0.482,0,0,1-.275.2,0.434,0.434,0,0,0-.241.141l-0.14.2h-0.117Zm0.349,3.809a0.107,0.107,0,0,1-.046.106l-0.165.141a2.114,2.114,0,0,1-.457.715l-0.316.527a0.847,0.847,0,0,1-.252.381,0.549,0.549,0,0,0-.1.029l-0.046.152a0.561,0.561,0,0,0-.2.229,1.28,1.28,0,0,1-.288.34q-0.222.2-.492,0.439a0.352,0.352,0,0,1-.158.234,0.857,0.857,0,0,0-.228.234,0.768,0.768,0,0,1-.311.211,1.282,1.282,0,0,0-.393.252c-0.148.129-.234,0.2-0.257,0.217l-0.692.281a0.316,0.316,0,0,0-.2.082,0.389,0.389,0,0,1-.141-0.293c0-.008.022-0.123,0.065-0.346a2.327,2.327,0,0,1,.1-0.4l0.071-.164a0.659,0.659,0,0,1,.111-0.393,0.726,0.726,0,0,0,.147-0.34,0.54,0.54,0,0,1,.228-0.357,0.76,0.76,0,0,0,.229-0.193,0.422,0.422,0,0,1,.14-0.135,0.976,0.976,0,0,0,.235-0.352h0.023a0.688,0.688,0,0,0,.117.023,0.834,0.834,0,0,0,.305-0.457,0.526,0.526,0,0,0,.246-0.123,0.852,0.852,0,0,1,.234-0.146,1.249,1.249,0,0,1,.176-0.164c0-.023.039-0.039,0.117-0.047a0.6,0.6,0,0,0,.287-0.146,1.951,1.951,0,0,1,.651-0.264,1.163,1.163,0,0,0,.621-0.316,0.081,0.081,0,0,1,.07-0.07,0.393,0.393,0,0,1,.2.094l0.352-.047Z"/>
</svg>
